<svg width="3226" height="1013" xmlns="http://www.w3.org/2000/svg" xmlns:xlink="http://www.w3.org/1999/xlink" overflow="hidden"><defs><clipPath id="clip0"><rect x="174" y="238" width="3226" height="1013"/></clipPath></defs><g clip-path="url(#clip0)" transform="translate(-174 -238)"><text fill="#565A5C" fill-opacity="1" font-family="Arial,Arial_MSFontService,sans-serif" font-style="normal" font-variant="normal" font-weight="400" font-stretch="normal" font-size="92" text-anchor="start" direction="ltr" writing-mode="lr-tb" unicode-bidi="normal" text-decoration="none" transform="matrix(1 0 0 1 1621.77 1168)">Survival<tspan fill="#565A5C" fill-opacity="1" font-family="Arial,Arial_MSFontService,sans-serif" font-style="normal" font-variant="normal" font-weight="700" font-stretch="normal" font-size="92" text-anchor="start" direction="ltr" writing-mode="lr-tb" unicode-bidi="normal" text-decoration="none" x="-1217.49" y="-812">Methods that attempt to assess the direct effect of treatment on </tspan><tspan fill="#565A5C" fill-opacity="1" font-family="Arial,Arial_MSFontService,sans-serif" font-style="normal" font-variant="normal" font-weight="700" font-stretch="normal" font-size="92" text-anchor="start" direction="ltr" writing-mode="lr-tb" unicode-bidi="normal" text-decoration="none" x="-1179.41" y="-702">disability can </tspan><tspan fill="#435A8B" fill-opacity="1" font-family="Arial,Arial_MSFontService,sans-serif" font-style="normal" font-variant="normal" font-weight="700" font-stretch="normal" font-size="92" text-anchor="start" direction="ltr" writing-mode="lr-tb" unicode-bidi="normal" text-decoration="none" x="-574.406" y="-702">introduce collider bias by stratifying on surviva</tspan><tspan fill="#435A8B" fill-opacity="1" font-family="Arial,Arial_MSFontService,sans-serif" font-style="normal" font-variant="normal" font-weight="700" font-stretch="normal" font-size="92" text-anchor="start" direction="ltr" writing-mode="lr-tb" unicode-bidi="normal" text-decoration="none" x="1485.8" y="-702">l</tspan><tspan fill="#565A5C" fill-opacity="1" font-family="Arial,Arial_MSFontService,sans-serif" font-style="normal" font-variant="normal" font-weight="400" font-stretch="normal" font-size="92" text-anchor="start" direction="ltr" writing-mode="lr-tb" unicode-bidi="normal" text-decoration="none" x="345.839" y="-372">Confounde</tspan><tspan fill="#565A5C" fill-opacity="1" font-family="Arial,Arial_MSFontService,sans-serif" font-style="normal" font-variant="normal" font-weight="400" font-stretch="normal" font-size="92" text-anchor="start" direction="ltr" writing-mode="lr-tb" unicode-bidi="normal" text-decoration="none" x="794.433" y="-372">r</tspan><tspan fill="#565A5C" fill-opacity="1" font-family="Arial,Arial_MSFontService,sans-serif" font-style="normal" font-variant="normal" font-weight="400" font-stretch="normal" font-size="92" text-anchor="start" direction="ltr" writing-mode="lr-tb" unicode-bidi="normal" text-decoration="none" x="-1129.41" y="5">Treatment</tspan><tspan fill="#565A5C" fill-opacity="1" font-family="Arial,Arial_MSFontService,sans-serif" font-style="normal" font-variant="normal" font-weight="400" font-stretch="normal" font-size="92" text-anchor="start" direction="ltr" writing-mode="lr-tb" unicode-bidi="normal" text-decoration="none" x="885.269" y="-5">Disability</tspan></text><path d="M1031.5 1127.77 1391.4 1127.77C1394.57 1127.77 1397.13 1130.34 1397.13 1133.5 1397.13 1136.66 1394.57 1139.23 1391.4 1139.23L1031.5 1139.23C1028.34 1139.23 1025.77 1136.66 1025.77 1133.5 1025.77 1130.34 1028.34 1127.77 1031.5 1127.77ZM1385.67 1116.31 1420.05 1133.5 1385.67 1150.69Z" fill="#435A8B" fill-rule="nonzero" fill-opacity="1"/><path d="M2097.5 1127.77 2457.4 1127.77C2460.57 1127.77 2463.13 1130.34 2463.13 1133.5 2463.13 1136.66 2460.57 1139.23 2457.4 1139.23L2097.5 1139.23C2094.34 1139.23 2091.77 1136.66 2091.77 1133.5 2091.77 1130.34 2094.34 1127.77 2097.5 1127.77ZM2451.67 1116.31 2486.05 1133.5 2451.67 1150.69Z" fill="#435A8B" fill-rule="nonzero" fill-opacity="1"/><path d="M2210.02 816.354 2668.14 1040.54C2670.99 1041.93 2672.16 1045.36 2670.77 1048.2 2669.38 1051.04 2665.95 1052.22 2663.11 1050.83L2204.98 826.646C2202.14 825.255 2200.96 821.824 2202.35 818.982 2203.74 816.14 2207.18 814.963 2210.02 816.354ZM2668.04 1027.73 2691.36 1058.28 2652.93 1058.6Z" fill="#435A8B" fill-rule="nonzero" fill-opacity="1"/><path d="M2.85263-4.96849 400.047 223.078C402.791 224.654 403.739 228.155 402.163 230.9 400.588 233.644 397.086 234.591 394.342 233.015L-2.85263 4.96849C-5.59665 3.39302-6.54395-0.108607-4.96849-2.85263-3.39302-5.59665 0.108607-6.54395 2.85263-4.96849ZM400.784 210.289 422.037 242.31 383.668 240.1Z" fill="#435A8B" fill-rule="nonzero" fill-opacity="1" transform="matrix(-1 0 0 1 2207.54 821.5)"/><path d="M969.5 1073.5C1146.94 996.629 1324.37 919.758 1485.37 872.091 1646.37 824.425 1790.94 805.962 1935.5 787.5" stroke="#DC4000" stroke-width="6.875" stroke-linecap="butt" stroke-linejoin="round" stroke-miterlimit="10" stroke-dasharray="27.5 20.625" stroke-opacity="1" fill="none" fill-rule="evenodd"/><rect x="1513.5" y="1073.5" width="544" height="120" stroke="#435A8B" stroke-width="9.16667" stroke-linecap="butt" stroke-linejoin="round" stroke-miterlimit="10" stroke-opacity="1" fill="none"/></g></svg>